<?xml version="1.0" encoding="UTF-8"?>
<svg id="Layer_1" xmlns="http://www.w3.org/2000/svg" version="1.1" xmlns:xlink="http://www.w3.org/1999/xlink" viewBox="0 0 2000 2000">
  <!-- Generator: Adobe Illustrator 29.6.0, SVG Export Plug-In . SVG Version: 2.1.1 Build 207)  -->
  <defs>
    <style>
      .st0 {
        fill: url(#linear-gradient2);
      }

      .st1 {
        clip-path: url(#clippath-6);
      }

      .st2 {
        clip-path: url(#clippath-7);
      }

      .st3 {
        mask: url(#mask-5);
      }

      .st4 {
        clip-path: url(#clippath-4);
      }

      .st5 {
        fill: url(#linear-gradient10);
      }

      .st6 {
        mask: url(#mask-1);
      }

      .st7 {
        fill: #fd3;
      }

      .st8 {
        clip-path: url(#clippath-9);
      }

      .st9 {
        clip-path: url(#clippath-10);
      }

      .st10 {
        fill: #fff;
      }

      .st11 {
        mask: url(#mask);
      }

      .st12 {
        fill: url(#linear-gradient1);
      }

      .st13 {
        fill: url(#linear-gradient9);
      }

      .st14 {
        clip-path: url(#clippath-11);
      }

      .st15 {
        fill: url(#linear-gradient8);
      }

      .st16 {
        fill: url(#linear-gradient11);
      }

      .st17 {
        fill: none;
      }

      .st18 {
        mask: url(#mask-2);
      }

      .st19 {
        clip-path: url(#clippath-1);
      }

      .st20 {
        clip-path: url(#clippath-5);
      }

      .st21 {
        fill: #282627;
      }

      .st22 {
        clip-path: url(#clippath-8);
      }

      .st23 {
        fill: #ffce00;
      }

      .st24 {
        clip-path: url(#clippath-3);
      }

      .st25 {
        fill: url(#linear-gradient7);
      }

      .st26 {
        fill: url(#linear-gradient4);
      }

      .st27 {
        fill: url(#linear-gradient5);
      }

      .st28 {
        fill: url(#linear-gradient3);
      }

      .st29 {
        fill: url(#linear-gradient6);
      }

      .st30 {
        clip-path: url(#clippath-2);
      }

      .st31 {
        mask: url(#mask-4);
      }

      .st32 {
        fill: #ffe75c;
      }

      .st33 {
        fill: url(#linear-gradient);
      }

      .st34 {
        clip-path: url(#clippath);
      }

      .st35 {
        mask: url(#mask-3);
      }
    </style>
    <clipPath id="clippath">
      <rect class="st17" x="588.5" y="914.6" width="86.9" height="170.7"/>
    </clipPath>
    <clipPath id="clippath-1">
      <polygon class="st17" points="588.5 1085.4 654.4 914.6 675.4 914.6 610.4 1085.4 588.5 1085.4"/>
    </clipPath>
    <linearGradient id="linear-gradient" x1="757.6" y1="1412.4" x2="763.6" y2="1412.4" gradientTransform="translate(-19978.1 -10122.3) rotate(90) scale(14.6 -14.6)" gradientUnits="userSpaceOnUse">
      <stop offset="0" stop-color="#fff"/>
      <stop offset="1" stop-color="#000"/>
    </linearGradient>
    <mask id="mask" x="527.8" y="883.7" width="208.3" height="232.5" maskUnits="userSpaceOnUse">
      <rect class="st33" x="536.5" y="927" width="191" height="146" transform="translate(-534.3 1198.1) rotate(-67.3)"/>
    </mask>
    <linearGradient id="linear-gradient1" x1="757.6" y1="1412.4" x2="763.6" y2="1412.4" gradientTransform="translate(-19978.1 -10122.3) rotate(90) scale(14.6 -14.6)" gradientUnits="userSpaceOnUse">
      <stop offset="0" stop-color="#fff"/>
      <stop offset="1" stop-color="#fff"/>
    </linearGradient>
    <clipPath id="clippath-2">
      <rect class="st17" x="537.4" y="914.6" width="86.9" height="170.7"/>
    </clipPath>
    <clipPath id="clippath-3">
      <polygon class="st17" points="537.4 1085.4 603.2 914.6 624.3 914.6 559.3 1085.4 537.4 1085.4"/>
    </clipPath>
    <linearGradient id="linear-gradient2" x1="755" y1="1411.3" x2="761" y2="1411.3" gradientTransform="translate(-20013.8 -10081.6) rotate(90) scale(14.6 -14.6)" xlink:href="#linear-gradient"/>
    <mask id="mask-1" x="477.2" y="884" width="207.3" height="232" maskUnits="userSpaceOnUse">
      <rect class="st0" x="485.3" y="927.3" width="191" height="145.4" transform="translate(-565.1 1155.6) rotate(-67.6)"/>
    </mask>
    <linearGradient id="linear-gradient3" x1="755" y1="1411.3" x2="761" y2="1411.3" gradientTransform="translate(-20013.8 -10081.6) rotate(90) scale(14.6 -14.6)" xlink:href="#linear-gradient1"/>
    <clipPath id="clippath-4">
      <rect class="st17" x="486.2" y="914.4" width="86.9" height="170.7"/>
    </clipPath>
    <clipPath id="clippath-5">
      <polygon class="st17" points="486.2 1085.1 552 914.4 573.1 914.4 508.1 1085.1 486.2 1085.1"/>
    </clipPath>
    <linearGradient id="linear-gradient4" x1="752.3" y1="1410.4" x2="758.2" y2="1410.4" gradientTransform="translate(-20052.7 -10039.6) rotate(90) scale(14.6 -14.6)" xlink:href="#linear-gradient"/>
    <mask id="mask-2" x="427.5" y="884.5" width="204.4" height="230.5" maskUnits="userSpaceOnUse">
      <rect class="st26" x="434.2" y="927.8" width="190.8" height="144" transform="translate(-595.2 1121.6) rotate(-68.3)"/>
    </mask>
    <linearGradient id="linear-gradient5" x1="752.3" y1="1410.4" x2="758.2" y2="1410.4" gradientTransform="translate(-20052.7 -10039.6) rotate(90) scale(14.6 -14.6)" xlink:href="#linear-gradient1"/>
    <clipPath id="clippath-6">
      <rect class="st17" x="588.5" y="2931.4" width="86.9" height="170.7"/>
    </clipPath>
    <clipPath id="clippath-7">
      <polygon class="st17" points="588.5 3102.1 654.4 2931.4 675.4 2931.4 610.4 3102.1 588.5 3102.1"/>
    </clipPath>
    <linearGradient id="linear-gradient6" x1="810.9" y1="1284.8" x2="816.8" y2="1284.8" gradientTransform="translate(-18116.9 -8882.2) rotate(90) scale(14.6 -14.6)" xlink:href="#linear-gradient"/>
    <mask id="mask-3" x="527.8" y="2900.5" width="208.3" height="232.5" maskUnits="userSpaceOnUse">
      <rect class="st29" x="536.5" y="2943.8" width="191" height="146" transform="translate(-2395.5 2438.2) rotate(-67.3)"/>
    </mask>
    <linearGradient id="linear-gradient7" x1="810.9" y1="1284.8" x2="816.8" y2="1284.8" gradientTransform="translate(-18116.9 -8882.2) rotate(90) scale(14.6 -14.6)" xlink:href="#linear-gradient1"/>
    <clipPath id="clippath-8">
      <rect class="st17" x="537.4" y="2931.4" width="86.9" height="170.7"/>
    </clipPath>
    <clipPath id="clippath-9">
      <polygon class="st17" points="537.4 3102.1 603.2 2931.4 624.3 2931.4 559.3 3102.1 537.4 3102.1"/>
    </clipPath>
    <linearGradient id="linear-gradient8" x1="807.7" y1="1283.5" x2="813.7" y2="1283.5" gradientTransform="translate(-18149.5 -8834) rotate(90) scale(14.6 -14.6)" xlink:href="#linear-gradient"/>
    <mask id="mask-4" x="477.2" y="2900.7" width="207.3" height="232" maskUnits="userSpaceOnUse">
      <rect class="st15" x="485.3" y="2944" width="191" height="145.4" transform="translate(-2429.5 2403.2) rotate(-67.6)"/>
    </mask>
    <linearGradient id="linear-gradient9" x1="807.7" y1="1283.5" x2="813.7" y2="1283.5" gradientTransform="translate(-18149.5 -8834) rotate(90) scale(14.6 -14.6)" xlink:href="#linear-gradient1"/>
    <clipPath id="clippath-10">
      <rect class="st17" x="486.2" y="2931.1" width="86.9" height="170.7"/>
    </clipPath>
    <clipPath id="clippath-11">
      <polygon class="st17" points="486.2 3101.9 552 2931.1 573.1 2931.1 508.1 3101.9 486.2 3101.9"/>
    </clipPath>
    <linearGradient id="linear-gradient10" x1="803.5" y1="1282.1" x2="809.4" y2="1282.1" gradientTransform="translate(-18179.3 -8769.6) rotate(90) scale(14.6 -14.6)" xlink:href="#linear-gradient"/>
    <mask id="mask-5" x="427.5" y="2901.2" width="204.4" height="230.5" maskUnits="userSpaceOnUse">
      <rect class="st5" x="434.2" y="2944.5" width="190.8" height="144" transform="translate(-2468.6 2391.6) rotate(-68.3)"/>
    </mask>
    <linearGradient id="linear-gradient11" x1="803.5" y1="1282.1" x2="809.4" y2="1282.1" gradientTransform="translate(-18179.3 -8769.6) rotate(90) scale(14.6 -14.6)" xlink:href="#linear-gradient1"/>
  </defs>
  <path class="st21" d="M699.8,906.3l-72.3,187.5h42l14.8-37.5h70.3l14.2,37.5h42l-72.1-187.5h-39ZM739.6,1016.9h-40.4l20.3-51.9,20.1,51.9Z"/>
  <polygon class="st21" points="1039.6 906.3 999.1 1027 958.9 906.3 920.8 906.3 895.1 1055.1 851.1 1055.1 851.1 906.3 810.9 906.3 810.9 1093.7 927.8 1093.7 946.3 987.6 981.7 1093.7 1016.2 1093.7 1051.9 987.6 1069.9 1093.7 1109.1 1093.7 1077.7 906.3 1039.6 906.3"/>
  <path class="st21" d="M1490.3,995.9h-97v38.1h50.9c-4.5,8.1-10.1,14.3-16.7,18.4-7.7,4.7-17.4,7.1-28.8,7.1-17.6,0-32.5-5.9-44.4-17.5-11.9-11.6-18-25.9-18-42.6s5.8-30,17.3-41.3c11.5-11.3,26-17,43-17s37.1,7.9,51.9,23.6l2,2.1,28.4-28-1.8-2c-11.3-12.3-23.2-21.1-35.1-26.1-14.1-6-29.3-9-45.5-9-30.9,0-56.4,11-75.8,32.7-14.7,16.4-22.8,35.6-24.3,57.3-1.9-23.7-11.3-44.2-28.2-61.2-19-19.1-42-28.8-68.4-28.8s-33.9,4.4-49,13.2c-15.1,8.7-27.1,20.8-35.7,35.7-8.6,14.9-13,31.6-13,49.4,0,26.6,9.4,49.9,27.9,69.2,18.5,19.4,42.1,29.2,70.1,29.2s49.8-9.6,68.5-28.4c17.1-17.2,26.4-38.1,28-62.2,1.2,14.8,5.5,28.8,12.9,41.8,8.8,15.5,21,27.7,36.2,36.1,15.1,8.4,32.6,12.7,51.9,12.7s34-3.9,47.5-11.6c13.5-7.7,24.6-19,33.1-33.7,8.5-14.6,12.7-30.3,12.7-46.7l-.3-10.4ZM1199.3,941.2c15.8,0,29.4,5.8,40.4,17.1,11.1,11.4,16.7,25.5,16.7,42s-5.6,30.7-16.5,41.9c-10.9,11.2-24.4,17-39.9,17s-26.2-4.4-36.8-13.1c-13.9-11.3-20.6-26.1-20.6-45.5s5.5-31.6,16.4-42.7c10.9-11.1,24.5-16.7,40.4-16.7"/>
  <path class="st21" d="M1504.8,908.6c1.2-.2,2.9-.4,4.5-.4,2.5,0,4.1.5,5.3,1.5.9.8,1.4,2,1.4,3.4,0,2.4-1.5,4-3.4,4.6h0c1.4.6,2.2,1.9,2.7,3.7.6,2.5,1,4.3,1.4,5h-2.4c-.3-.5-.7-2.1-1.2-4.3-.5-2.5-1.5-3.4-3.6-3.5h-2.2v7.9h-2.3v-17.9ZM1507.2,916.9h2.4c2.5,0,4.1-1.4,4.1-3.4s-1.7-3.4-4.2-3.4c-1.1,0-1.9.1-2.3.2v6.6Z"/>
  <path class="st21" d="M1510.4,932.8c-8.6,0-15.6-7-15.6-15.6s7-15.6,15.6-15.6,15.6,7,15.6,15.6-7,15.6-15.6,15.6M1510.4,903.5c-7.6,0-13.8,6.2-13.8,13.8s6.2,13.8,13.8,13.8,13.8-6.2,13.8-13.8-6.2-13.8-13.8-13.8"/>
  <polygon class="st23" points="687.6 906.3 648.6 906.3 576.3 1093.7 616.2 1093.7 687.6 906.3"/>
  <g class="st34">
    <g class="st19">
      <g class="st11">
        <rect class="st12" x="536.5" y="927" width="191" height="146" transform="translate(-534.3 1198.1) rotate(-67.3)"/>
      </g>
    </g>
  </g>
  <polygon class="st7" points="636.4 906.3 597.4 906.3 525.2 1093.7 565 1093.7 636.4 906.3"/>
  <g class="st30">
    <g class="st24">
      <g class="st6">
        <rect class="st28" x="485.3" y="927.3" width="191" height="145.4" transform="translate(-565.1 1155.6) rotate(-67.6)"/>
      </g>
    </g>
  </g>
  <polygon class="st32" points="585.2 906 546.3 906 474 1093.5 513.9 1093.5 585.2 906"/>
  <g class="st4">
    <g class="st20">
      <g class="st18">
        <rect class="st27" x="434.2" y="927.8" width="190.8" height="144" transform="translate(-595.2 1121.6) rotate(-68.3)"/>
      </g>
    </g>
  </g>
  <rect class="st17" x="474" y="905.9" width="213.6" height="187.7"/>
  <path class="st10" d="M699.8,2923l-72.3,187.5h42l14.8-37.5h70.3l14.2,37.5h42l-72.1-187.5h-39ZM739.6,3033.7h-40.4l20.3-51.9,20.1,51.9Z"/>
  <polygon class="st10" points="1039.6 2923 999.1 3043.8 958.9 2923 920.8 2923 895.1 3071.8 851.1 3071.8 851.1 2923 810.9 2923 810.9 3110.5 927.8 3110.5 946.3 3004.3 981.7 3110.5 1016.2 3110.5 1051.9 3004.3 1069.9 3110.5 1109.1 3110.5 1077.7 2923 1039.6 2923"/>
  <path class="st10" d="M1490.3,3012.6h-97v38.1h50.9c-4.5,8.1-10.1,14.3-16.7,18.4-7.7,4.7-17.4,7.1-28.8,7.1-17.6,0-32.5-5.9-44.4-17.5-11.9-11.6-18-25.9-18-42.6s5.8-30,17.3-41.3c11.5-11.3,26-17,43-17s37.1,7.9,51.9,23.6l2,2.1,28.4-28-1.8-2c-11.3-12.3-23.2-21.1-35.1-26.1-14.1-6-29.3-9-45.5-9-30.9,0-56.4,11-75.8,32.7-14.7,16.4-22.8,35.6-24.3,57.3-1.9-23.7-11.3-44.2-28.2-61.2-19-19.1-42-28.8-68.4-28.8s-33.9,4.4-49,13.2c-15.1,8.7-27.1,20.8-35.7,35.7-8.6,14.9-13,31.6-13,49.4,0,26.6,9.4,49.9,27.9,69.2,18.5,19.4,42.1,29.2,70.1,29.2s49.8-9.6,68.5-28.4c17.1-17.2,26.4-38.1,28-62.2,1.2,14.8,5.5,28.8,12.9,41.8,8.8,15.5,21,27.7,36.2,36.1,15.1,8.4,32.6,12.7,51.9,12.7s34-3.9,47.5-11.6c13.5-7.7,24.6-19,33.1-33.7,8.5-14.6,12.7-30.3,12.7-46.7l-.3-10.4ZM1199.3,2957.9c15.8,0,29.4,5.8,40.4,17.1,11.1,11.4,16.7,25.5,16.7,42s-5.6,30.7-16.5,41.9c-10.9,11.2-24.4,17-39.9,17s-26.2-4.4-36.8-13.1c-13.9-11.3-20.6-26.1-20.6-45.5s5.5-31.6,16.4-42.7c10.9-11.1,24.5-16.7,40.4-16.7"/>
  <path class="st10" d="M1504.8,2925.4c1.2-.2,2.9-.4,4.5-.4,2.5,0,4.1.5,5.3,1.5.9.8,1.4,2,1.4,3.4,0,2.4-1.5,4-3.4,4.6h0c1.4.6,2.2,1.9,2.7,3.7.6,2.5,1,4.3,1.4,5h-2.4c-.3-.5-.7-2.1-1.2-4.3-.5-2.5-1.5-3.4-3.6-3.5h-2.2v7.9h-2.3v-17.9ZM1507.2,2933.6h2.4c2.5,0,4.1-1.4,4.1-3.4s-1.7-3.4-4.2-3.4c-1.1,0-1.9.1-2.3.2v6.6Z"/>
  <path class="st10" d="M1510.4,2949.6c-8.6,0-15.6-7-15.6-15.6s7-15.6,15.6-15.6,15.6,7,15.6,15.6-7,15.6-15.6,15.6M1510.4,2920.2c-7.6,0-13.8,6.2-13.8,13.8s6.2,13.8,13.8,13.8,13.8-6.2,13.8-13.8-6.2-13.8-13.8-13.8"/>
  <polygon class="st23" points="687.6 2923 648.6 2923 576.3 3110.5 616.2 3110.5 687.6 2923"/>
  <g class="st1">
    <g class="st2">
      <g class="st35">
        <rect class="st25" x="536.5" y="2943.8" width="191" height="146" transform="translate(-2395.5 2438.2) rotate(-67.3)"/>
      </g>
    </g>
  </g>
  <polygon class="st7" points="636.4 2923 597.4 2923 525.2 3110.5 565 3110.5 636.4 2923"/>
  <g class="st22">
    <g class="st8">
      <g class="st31">
        <rect class="st13" x="485.3" y="2944" width="191" height="145.4" transform="translate(-2429.5 2403.2) rotate(-67.6)"/>
      </g>
    </g>
  </g>
  <polygon class="st32" points="585.2 2922.8 546.3 2922.8 474 3110.2 513.9 3110.2 585.2 2922.8"/>
  <g class="st9">
    <g class="st14">
      <g class="st3">
        <rect class="st16" x="434.2" y="2944.5" width="190.8" height="144" transform="translate(-2468.6 2391.6) rotate(-68.3)"/>
      </g>
    </g>
  </g>
  <rect class="st17" x="474" y="2922.7" width="213.6" height="187.7"/>
</svg>